<?xml version="1.0" encoding="UTF-8" standalone="no"?>
<!DOCTYPE svg PUBLIC "-//W3C//DTD SVG 1.1//EN" "http://www.w3.org/Graphics/SVG/1.1/DTD/svg11.dtd">
<svg version="1.1" xmlns="http://www.w3.org/2000/svg" xmlns:xlink="http://www.w3.org/1999/xlink" preserveAspectRatio="xMidYMid meet" viewBox="0 0 24 24" width="24" height="24"><defs><path d="M12 0C10.84 2.17 10.19 3.38 10.06 3.62C9.84 4.01 9.44 3.98 9.05 3.76C8.96 3.71 8.49 3.47 7.65 3.03C8.27 6.36 8.62 8.22 8.69 8.59C8.91 9.6 8.21 9.6 7.86 9.17C7.69 8.98 6.88 8.07 5.41 6.42C5.17 7.26 5.03 7.72 5.01 7.81C4.96 8 4.76 8.19 4.46 8.14C4.25 8.1 3.22 7.88 1.36 7.49C1.85 9.27 2.12 10.26 2.17 10.45C2.35 11.11 2.48 11.38 2 11.56C1.92 11.59 1.55 11.77 0.89 12.08C4.09 14.68 5.87 16.12 6.23 16.41C6.44 16.58 6.54 16.87 6.47 17.14C6.42 17.29 6.05 18.52 6 18.67C7.84 18.46 9.49 18.14 11.33 17.95C11.49 17.93 11.76 18.2 11.76 18.38C11.74 18.76 11.66 20.63 11.51 24L12.41 24C12.32 20.64 12.28 18.77 12.27 18.4C12.27 18.21 12.51 17.93 12.67 17.95C14.51 18.14 16.16 18.46 18 18.67C17.95 18.52 17.58 17.29 17.53 17.14C17.46 16.87 17.56 16.58 17.77 16.41C18.13 16.12 19.91 14.68 23.11 12.08C22.45 11.77 22.08 11.59 22 11.56C21.52 11.38 21.65 11.11 21.83 10.45C21.88 10.26 22.15 9.27 22.64 7.49C20.78 7.88 19.75 8.1 19.54 8.14C19.24 8.19 19.04 8 18.99 7.81C18.97 7.72 18.83 7.26 18.59 6.42C17.12 8.07 16.31 8.98 16.14 9.17C15.79 9.6 15.09 9.6 15.31 8.59C15.38 8.22 15.73 6.36 16.35 3.03C15.51 3.47 15.04 3.71 14.95 3.76C14.56 3.98 14.16 4.01 13.94 3.62" id="hmJVNGCQw"></path></defs><g><g><g><use xlink:href="#hmJVNGCQw" opacity="1" fill="#ff0000" fill-opacity="1"></use><g><use xlink:href="#hmJVNGCQw" opacity="1" fill-opacity="0" stroke="#000000" stroke-width="1" stroke-opacity="0"></use></g></g></g></g></svg>