<?xml version="1.0" encoding="UTF-8" standalone="no"?>
<!DOCTYPE svg PUBLIC "-//W3C//DTD SVG 1.1//EN" "http://www.w3.org/Graphics/SVG/1.1/DTD/svg11.dtd">
<svg version="1.1" xmlns="http://www.w3.org/2000/svg" xmlns:xlink="http://www.w3.org/1999/xlink" preserveAspectRatio="xMidYMid meet" viewBox="0 0 24 24" width="24" height="24"><defs><path d="M14.57 0.3L15.79 0.63L16.96 1.09L18.06 1.66L19.09 2.34L20.04 3.11L20.91 3.98L21.68 4.93L22.36 5.96L22.93 7.06L23.39 8.23L23.72 9.45L23.93 10.71L24 12.02L23.93 13.33L23.72 14.59L23.39 15.81L22.93 16.98L22.36 18.08L21.68 19.11L20.91 20.06L20.04 20.93L19.09 21.7L18.06 22.38L16.96 22.95L15.79 23.41L14.57 23.74L13.31 23.95L12 24.02L10.69 23.95L9.43 23.74L8.21 23.41L7.04 22.95L5.94 22.38L4.91 21.7L3.96 20.93L3.09 20.06L2.32 19.11L1.64 18.08L1.07 16.98L0.61 15.81L0.28 14.59L0.07 13.33L0 12.02L0.07 10.71L0.28 9.45L0.61 8.23L1.07 7.06L1.64 5.96L2.32 4.93L3.09 3.98L3.96 3.11L4.91 2.34L5.94 1.66L7.04 1.09L8.21 0.63L9.43 0.3L10.69 0.09L12 0.02L13.31 0.09L14.57 0.3ZM19 17L19 8.5L12 14.17L5 8.5L5 17L19 17ZM12 12.67L18.99 7L5.01 7L12 12.67Z" id="cbN79tto"></path></defs><g><g><path></path><g><use xlink:href="#cbN79tto" opacity="1" fill="#ffffff" fill-opacity="1"></use><g><use xlink:href="#cbN79tto" opacity="1" fill-opacity="0" stroke="#000000" stroke-width="1" stroke-opacity="0"></use></g></g></g></g></svg>