<?xml version="1.0" encoding="UTF-8" standalone="no"?>
<!DOCTYPE svg PUBLIC "-//W3C//DTD SVG 1.1//EN" "http://www.w3.org/Graphics/SVG/1.1/DTD/svg11.dtd">
<svg version="1.1" xmlns="http://www.w3.org/2000/svg" xmlns:xlink="http://www.w3.org/1999/xlink" preserveAspectRatio="xMidYMid meet" viewBox="0 0 24 24" width="24" height="24"><defs><path d="M14.57 0.28L15.79 0.61L16.96 1.07L18.06 1.64L19.09 2.32L20.04 3.09L20.91 3.96L21.68 4.91L22.36 5.94L22.93 7.04L23.39 8.21L23.72 9.43L23.93 10.69L24 12L23.93 13.31L23.72 14.57L23.39 15.79L22.93 16.96L22.36 18.06L21.68 19.09L20.91 20.04L20.04 20.91L19.09 21.68L18.06 22.36L16.96 22.93L15.79 23.39L14.57 23.72L13.31 23.93L12 24L10.69 23.93L9.43 23.72L8.21 23.39L7.04 22.93L5.94 22.36L4.91 21.68L3.96 20.91L3.09 20.04L2.32 19.09L1.64 18.06L1.07 16.96L0.61 15.79L0.28 14.57L0.07 13.31L0 12L0.07 10.69L0.28 9.43L0.61 8.21L1.07 7.04L1.64 5.94L2.32 4.91L3.09 3.96L3.96 3.09L4.91 2.32L5.94 1.64L7.04 1.07L8.21 0.61L9.43 0.28L10.69 0.07L12 0L13.31 0.07L14.57 0.28ZM11 16L13 16L13 13.14L13.15 12.41L13.52 11.96L14 11.79L14.48 11.92L14.85 12.37L15 13.14L15 16L17 16L17 12.64L16.76 11.27L16.16 10.42L15.33 10.03L14.42 10.05L13.6 10.42L13 11.09L13 10L11 10L11 16ZM8 16L10 16L10 10L8 10L8 16ZM8.22 7.22L7.99 7.57L7.9 8L7.99 8.43L8.22 8.78L8.57 9.02L9 9.11L9.43 9.02L9.78 8.78L10.01 8.43L10.1 8L10.01 7.57L9.78 7.22L9.43 6.98L9 6.89L8.57 6.98L8.22 7.22Z" id="c1DjOfgNZb"></path></defs><g><g><g><use xlink:href="#c1DjOfgNZb" opacity="1" fill="#ffffff" fill-opacity="1"></use><g><use xlink:href="#c1DjOfgNZb" opacity="1" fill-opacity="0" stroke="#000000" stroke-width="1" stroke-opacity="0"></use></g></g></g></g></svg>