<?xml version="1.0" encoding="UTF-8" standalone="no"?>
<!DOCTYPE svg PUBLIC "-//W3C//DTD SVG 1.1//EN" "http://www.w3.org/Graphics/SVG/1.1/DTD/svg11.dtd">
<svg version="1.1" xmlns="http://www.w3.org/2000/svg" xmlns:xlink="http://www.w3.org/1999/xlink" preserveAspectRatio="xMidYMid meet" viewBox="0 0 24 24" width="24" height="24"><defs><path d="M14.57 0.28L15.79 0.61L16.96 1.07L18.06 1.64L19.09 2.32L20.04 3.09L20.91 3.96L21.68 4.91L22.36 5.94L22.93 7.04L23.39 8.21L23.72 9.43L23.93 10.69L24 12L23.93 13.31L23.72 14.57L23.39 15.79L22.93 16.96L22.36 18.06L21.68 19.09L20.91 20.04L20.04 20.91L19.09 21.68L18.06 22.36L16.96 22.93L15.79 23.39L14.57 23.72L13.31 23.93L12 24L10.69 23.93L9.43 23.72L8.21 23.39L7.04 22.93L5.94 22.36L4.91 21.68L3.96 20.91L3.09 20.04L2.32 19.09L1.64 18.06L1.07 16.96L0.61 15.79L0.28 14.57L0.07 13.31L0 12L0.07 10.69L0.28 9.43L0.61 8.21L1.07 7.04L1.64 5.94L2.32 4.91L3.09 3.96L3.96 3.09L4.91 2.32L5.94 1.64L7.04 1.07L8.21 0.61L9.43 0.28L10.69 0.07L12 0L13.31 0.07L14.57 0.28ZM14.24 6.97L13.81 7.16L13.43 7.42L13.09 7.73L12.81 8.08L12.58 8.48L12.42 8.92L12.33 9.37L12.32 9.85L12.39 10.34L11.75 10.28L11.12 10.17L10.51 10.02L9.92 9.82L9.35 9.58L8.8 9.3L8.28 8.98L7.78 8.62L7.31 8.22L6.88 7.79L6.47 7.34L6.3 7.7L6.17 8.07L6.1 8.46L6.09 8.84L6.12 9.23L6.21 9.6L6.34 9.97L6.53 10.31L6.76 10.63L7.04 10.92L7.36 11.17L7.24 11.16L7.11 11.15L6.98 11.13L6.86 11.11L6.74 11.08L6.62 11.05L6.51 11.01L6.39 10.97L6.28 10.92L6.17 10.87L6.06 10.81L6.08 11.17L6.14 11.52L6.25 11.86L6.39 12.19L6.58 12.49L6.8 12.77L7.06 13.02L7.34 13.24L7.66 13.42L8 13.57L8.37 13.67L8.26 13.69L8.14 13.72L8.03 13.74L7.91 13.75L7.79 13.76L7.68 13.76L7.56 13.77L7.43 13.76L7.31 13.75L7.19 13.73L7.07 13.71L7.18 14.02L7.33 14.3L7.51 14.57L7.72 14.81L7.95 15.03L8.21 15.22L8.48 15.39L8.78 15.52L9.09 15.62L9.41 15.68L9.75 15.71L9.42 15.95L9.06 16.17L8.7 16.36L8.33 16.53L7.94 16.67L7.55 16.78L7.15 16.86L6.74 16.91L6.33 16.94L5.92 16.93L5.5 16.9L5.85 17.11L6.22 17.31L6.59 17.49L6.97 17.65L7.37 17.79L7.77 17.91L8.18 18.01L8.6 18.09L9.03 18.14L9.46 18.18L9.9 18.19L11.3 18.08L12.58 17.77L13.73 17.28L14.76 16.64L15.65 15.86L16.42 14.98L17.04 14L17.52 12.95L17.85 11.86L18.04 10.75L18.07 9.65L18.22 9.53L18.37 9.41L18.51 9.29L18.65 9.16L18.78 9.03L18.91 8.9L19.04 8.76L19.16 8.61L19.28 8.46L19.39 8.31L19.5 8.16L19.36 8.22L19.21 8.27L19.07 8.33L18.92 8.38L18.77 8.42L18.62 8.46L18.47 8.5L18.32 8.53L18.16 8.56L18.01 8.59L17.85 8.61L18.01 8.51L18.16 8.39L18.3 8.27L18.44 8.14L18.56 8L18.68 7.86L18.79 7.7L18.89 7.54L18.97 7.37L19.05 7.2L19.11 7.02L18.96 7.11L18.8 7.19L18.65 7.27L18.49 7.34L18.32 7.41L18.16 7.48L17.99 7.53L17.82 7.59L17.64 7.64L17.47 7.68L17.29 7.72L17.14 7.57L16.98 7.43L16.81 7.31L16.64 7.2L16.45 7.1L16.26 7.01L16.06 6.94L15.85 6.89L15.63 6.84L15.42 6.82L15.19 6.81L14.7 6.85L14.24 6.97Z" id="g10VOtbplb"></path></defs><g><g><g><use xlink:href="#g10VOtbplb" opacity="1" fill="#ffffff" fill-opacity="1"></use><g><use xlink:href="#g10VOtbplb" opacity="1" fill-opacity="0" stroke="#000000" stroke-width="1" stroke-opacity="0"></use></g></g></g></g></svg>